<svg id="Layer_1" data-name="Layer 1" xmlns="http://www.w3.org/2000/svg" viewBox="0 0 111.87 122.88"><title>file-setting</title><path d="M59.49,11.47,79.08,29.82H59.49V11.47ZM20.72,69.38a2.12,2.12,0,0,0-2,2.21,2.08,2.08,0,0,0,2,2.21H45.3V69.38Zm0,15.83a2.12,2.12,0,0,0-2,2.21,2.08,2.08,0,0,0,2,2.21H45.3V85.21Zm0-47.5a2.12,2.12,0,0,0-2,2.21,2.09,2.09,0,0,0,2,2.21H43.45a2.12,2.12,0,0,0,2-2.21,2.1,2.1,0,0,0-2-2.21Zm0-15.83a2.12,2.12,0,0,0-2,2.21,2.08,2.08,0,0,0,2,2.21h12.5a2.12,2.12,0,0,0,2-2.21,2.09,2.09,0,0,0-2-2.21Zm0,31.67a2.12,2.12,0,0,0-2,2.21,2.1,2.1,0,0,0,2,2.21H59.16a2.13,2.13,0,0,0,2-2.21,2.09,2.09,0,0,0-2-2.21Zm36.05,60V75.07a9.34,9.34,0,0,1,9.31-9.31h36.5a9.34,9.34,0,0,1,9.31,9.31v38.5a9.34,9.34,0,0,1-9.31,9.31H66.06a9.34,9.34,0,0,1-9.31-9.31ZM95.14,81.74a1.61,1.61,0,0,0-2.29,0L91.1,83.49a12.53,12.53,0,0,0-1.49-.81A16.06,16.06,0,0,0,88,82.07V79.38a1.55,1.55,0,0,0-.47-1.14,1.52,1.52,0,0,0-1.15-.47H83.05a1.54,1.54,0,0,0-1.13.47,1.53,1.53,0,0,0-.48,1.14v2.46a12.48,12.48,0,0,0-1.64.5,12.93,12.93,0,0,0-1.5.7l-1.94-1.91a1.48,1.48,0,0,0-1.12-.49,1.61,1.61,0,0,0-1.15.49l-2.35,2.36a1.55,1.55,0,0,0-.49,1.15,1.53,1.53,0,0,0,.49,1.14l1.74,1.75A12.53,12.53,0,0,0,72.67,89c-.23.52-.44,1-.62,1.58H69.37a1.6,1.6,0,0,0-1.61,1.62v3.37a1.61,1.61,0,0,0,.46,1.13,1.56,1.56,0,0,0,1.15.48h2.46a12.81,12.81,0,0,0,.5,1.63,16.48,16.48,0,0,0,.7,1.54l-1.91,1.9a1.51,1.51,0,0,0-.49,1.12,1.57,1.57,0,0,0,.49,1.15l2.36,2.39a1.68,1.68,0,0,0,2.29,0l1.75-1.78A11.24,11.24,0,0,0,79,106a16.15,16.15,0,0,0,1.58.62v2.68a1.59,1.59,0,0,0,.47,1.15,1.58,1.58,0,0,0,1.15.47h3.36a1.62,1.62,0,0,0,1.14-.47,1.56,1.56,0,0,0,.48-1.15V106.8a11.38,11.38,0,0,0,1.63-.5,16.41,16.41,0,0,0,1.54-.69l1.9,1.9a1.56,1.56,0,0,0,2.27,0l2.39-2.36a1.68,1.68,0,0,0,0-2.29l-1.78-1.75A11.24,11.24,0,0,0,96,99.62,16.71,16.71,0,0,0,96.57,98h2.68a1.59,1.59,0,0,0,1.15-.47,1.55,1.55,0,0,0,.46-1.15V93.06a1.6,1.6,0,0,0-1.61-1.61H96.79a14.34,14.34,0,0,0-.5-1.62,11.15,11.15,0,0,0-.7-1.52l1.91-1.94A1.48,1.48,0,0,0,98,85.25a1.57,1.57,0,0,0-.49-1.15l-2.36-2.36Zm-10.83,6a6.55,6.55,0,0,1,2.57.51,6.47,6.47,0,0,1,3.51,3.51,6.73,6.73,0,0,1,0,5.14A7,7,0,0,1,89,99a6.82,6.82,0,0,1-2.11,1.4,6.73,6.73,0,0,1-5.14,0,6.66,6.66,0,0,1-2.1-1.4,6.85,6.85,0,0,1-1.41-2.11,6.73,6.73,0,0,1,0-5.14,6.56,6.56,0,0,1,3.51-3.51,6.58,6.58,0,0,1,2.57-.51ZM90,32.45a3.26,3.26,0,0,0-2.37-3.14L58.74,1.2A3.21,3.21,0,0,0,56.23,0H5.87A5.86,5.86,0,0,0,0,5.86V106.25a5.84,5.84,0,0,0,1.72,4.15,5.91,5.91,0,0,0,4.15,1.71H45.39v-6.55H6.55v-99H52.94V33.08a3.29,3.29,0,0,0,3.29,3.29h27.2V57.82H90V32.45Z"/></svg>