<svg xmlns="http://www.w3.org/2000/svg" shape-rendering="geometricPrecision" text-rendering="geometricPrecision" image-rendering="optimizeQuality" fill-rule="evenodd" clip-rule="evenodd" viewBox="0 0 411 512.07"><path d="M410.93 485.29c0 7.44-3 14.1-7.85 18.94-4.83 4.83-11.5 7.84-18.82 7.84H26.79c-7.32 0-14.12-3.01-18.94-7.84C3 499.39 0 492.73 0 485.29V26.78c0-7.45 3-14.11 7.85-18.95C12.67 3 19.33 0 26.79 0h230.03c4.57 0 8.76 2.08 11.49 5.49l131.85 128.37c6.27 1.7 10.84 7.58 10.84 14.37 0 112.36-.07 224.65-.07 337.06zm-205.7-238.9c1.8-7.73 9.54-12.54 17.28-10.75 7.73 1.8 12.54 9.54 10.74 17.28l-31.19 133.54c-1.79 7.74-9.53 12.55-17.27 10.75-7.73-1.8-12.54-9.54-10.74-17.27l31.18-133.55zm68.26 128.66c-5.97 5.21-15.04 4.61-20.26-1.36-5.22-5.96-4.61-15.03 1.35-20.25l42.24-37.01-42.24-37.01c-5.96-5.22-6.57-14.29-1.35-20.26 5.22-5.96 14.29-6.57 20.26-1.35l54.46 47.72c.51.44 1 .92 1.46 1.45 5.21 5.96 4.61 15.03-1.36 20.25l-54.56 47.82zm-117.07-21.61c5.96 5.22 6.57 14.29 1.35 20.25-5.22 5.97-14.29 6.57-20.26 1.36l-54.56-47.82c-5.97-5.22-6.57-14.29-1.35-20.25.45-.53.94-1.01 1.45-1.45l54.46-47.72c5.97-5.22 15.04-4.61 20.26 1.35 5.22 5.97 4.61 15.04-1.35 20.26l-42.24 37.01 42.24 37.01zm224.66-187.3H256.82c-8.36 0-15.03-6.8-15.03-15.03V29.78H29.93v452.37h351.19c0-105.37-.04-210.65-.04-316.01zM271.72 52.39l89.5 83.82h-89.5V52.39z"/></svg>